<mxfile host="app.diagrams.net" modified="2024-02-22T15:25:13.377Z" agent="Mozilla/5.0 (Macintosh; Intel Mac OS X 10_15_7) AppleWebKit/537.36 (KHTML, like Gecko) Chrome/121.0.0.0 Safari/537.36" etag="GnEci3G6dSB1-kAYqM5J" version="23.1.5" type="github">
  <diagram name="Page-1" id="vPZiWdD-PB54DvkDCxN7">
    <mxGraphModel dx="2643" dy="983" grid="1" gridSize="10" guides="1" tooltips="1" connect="1" arrows="1" fold="1" page="1" pageScale="1" pageWidth="850" pageHeight="1100" math="0" shadow="0">
      <root>
        <mxCell id="0" />
        <mxCell id="1" parent="0" />
        <mxCell id="oWpsuCF8S4G1BgzhmDhQ-1" value="Hardware block diagram" style="text;html=1;align=center;verticalAlign=middle;whiteSpace=wrap;rounded=0;fontStyle=1" parent="1" vertex="1">
          <mxGeometry x="40" y="430" width="160" height="30" as="geometry" />
        </mxCell>
        <mxCell id="oWpsuCF8S4G1BgzhmDhQ-3" value="" style="swimlane;startSize=0;strokeWidth=3;gradientColor=none;rounded=1;sketch=1;curveFitting=1;jiggle=2;shadow=0;glass=0;" parent="1" vertex="1">
          <mxGeometry x="40" y="80" width="760" height="340" as="geometry" />
        </mxCell>
        <mxCell id="oWpsuCF8S4G1BgzhmDhQ-4" value="" style="swimlane;startSize=0;strokeWidth=3;sketch=1;curveFitting=1;jiggle=2;rounded=1;" parent="oWpsuCF8S4G1BgzhmDhQ-3" vertex="1">
          <mxGeometry x="30" y="20" width="130" height="120" as="geometry" />
        </mxCell>
        <mxCell id="oWpsuCF8S4G1BgzhmDhQ-5" value="&lt;p style=&quot;border: 0px solid rgb(227, 227, 227); box-sizing: border-box; --tw-border-spacing-x: 0; --tw-border-spacing-y: 0; --tw-translate-x: 0; --tw-translate-y: 0; --tw-rotate: 0; --tw-skew-x: 0; --tw-skew-y: 0; --tw-scale-x: 1; --tw-scale-y: 1; --tw-pan-x: ; --tw-pan-y: ; --tw-pinch-zoom: ; --tw-scroll-snap-strictness: proximity; --tw-gradient-from-position: ; --tw-gradient-via-position: ; --tw-gradient-to-position: ; --tw-ordinal: ; --tw-slashed-zero: ; --tw-numeric-figure: ; --tw-numeric-spacing: ; --tw-numeric-fraction: ; --tw-ring-inset: ; --tw-ring-offset-width: 0px; --tw-ring-offset-color: #fff; --tw-ring-color: rgba(69,89,164,.5); --tw-ring-offset-shadow: 0 0 transparent; --tw-ring-shadow: 0 0 transparent; --tw-shadow: 0 0 transparent; --tw-shadow-colored: 0 0 transparent; --tw-blur: ; --tw-brightness: ; --tw-contrast: ; --tw-grayscale: ; --tw-hue-rotate: ; --tw-invert: ; --tw-saturate: ; --tw-sepia: ; --tw-drop-shadow: ; --tw-backdrop-blur: ; --tw-backdrop-brightness: ; --tw-backdrop-contrast: ; --tw-backdrop-grayscale: ; --tw-backdrop-hue-rotate: ; --tw-backdrop-invert: ; --tw-backdrop-opacity: ; --tw-backdrop-saturate: ; --tw-backdrop-sepia: ; font-size: 1.25em; margin: 1rem 0px 0.5rem; line-height: 1.6; color: rgb(13, 13, 13); text-align: start;&quot;&gt;&lt;font&gt;Power&lt;/font&gt;&lt;/p&gt;" style="text;html=1;align=center;verticalAlign=middle;resizable=0;points=[];autosize=1;strokeColor=none;fillColor=none;fontFamily=Comic Sans MS;fontStyle=0;labelBackgroundColor=none;labelBorderColor=none;" parent="oWpsuCF8S4G1BgzhmDhQ-4" vertex="1">
          <mxGeometry x="35" y="30" width="60" height="60" as="geometry" />
        </mxCell>
        <mxCell id="oWpsuCF8S4G1BgzhmDhQ-6" value="" style="swimlane;startSize=0;strokeWidth=3;sketch=1;curveFitting=1;jiggle=2;rounded=1;" parent="oWpsuCF8S4G1BgzhmDhQ-3" vertex="1">
          <mxGeometry x="30" y="190" width="100" height="90" as="geometry" />
        </mxCell>
        <mxCell id="oWpsuCF8S4G1BgzhmDhQ-7" value="&lt;p style=&quot;border: 0px solid rgb(227, 227, 227); box-sizing: border-box; --tw-border-spacing-x: 0; --tw-border-spacing-y: 0; --tw-translate-x: 0; --tw-translate-y: 0; --tw-rotate: 0; --tw-skew-x: 0; --tw-skew-y: 0; --tw-scale-x: 1; --tw-scale-y: 1; --tw-pan-x: ; --tw-pan-y: ; --tw-pinch-zoom: ; --tw-scroll-snap-strictness: proximity; --tw-gradient-from-position: ; --tw-gradient-via-position: ; --tw-gradient-to-position: ; --tw-ordinal: ; --tw-slashed-zero: ; --tw-numeric-figure: ; --tw-numeric-spacing: ; --tw-numeric-fraction: ; --tw-ring-inset: ; --tw-ring-offset-width: 0px; --tw-ring-offset-color: #fff; --tw-ring-color: rgba(69,89,164,.5); --tw-ring-offset-shadow: 0 0 transparent; --tw-ring-shadow: 0 0 transparent; --tw-shadow: 0 0 transparent; --tw-shadow-colored: 0 0 transparent; --tw-blur: ; --tw-brightness: ; --tw-contrast: ; --tw-grayscale: ; --tw-hue-rotate: ; --tw-invert: ; --tw-saturate: ; --tw-sepia: ; --tw-drop-shadow: ; --tw-backdrop-blur: ; --tw-backdrop-brightness: ; --tw-backdrop-contrast: ; --tw-backdrop-grayscale: ; --tw-backdrop-hue-rotate: ; --tw-backdrop-invert: ; --tw-backdrop-opacity: ; --tw-backdrop-saturate: ; --tw-backdrop-sepia: ; font-size: 1.25em; margin: 1rem 0px 0.5rem; line-height: 1.6; color: rgb(13, 13, 13); text-align: start;&quot;&gt;&lt;font&gt;Infrared&lt;/font&gt;&lt;/p&gt;" style="text;html=1;align=center;verticalAlign=middle;resizable=0;points=[];autosize=1;strokeColor=none;fillColor=none;fontFamily=Comic Sans MS;fontStyle=0;labelBackgroundColor=none;labelBorderColor=none;" parent="oWpsuCF8S4G1BgzhmDhQ-6" vertex="1">
          <mxGeometry x="5" y="15" width="90" height="60" as="geometry" />
        </mxCell>
        <mxCell id="oWpsuCF8S4G1BgzhmDhQ-10" value="" style="swimlane;startSize=0;strokeWidth=3;sketch=1;curveFitting=1;jiggle=2;rounded=1;" parent="oWpsuCF8S4G1BgzhmDhQ-3" vertex="1">
          <mxGeometry x="440" y="30" width="240" height="120" as="geometry" />
        </mxCell>
        <mxCell id="oWpsuCF8S4G1BgzhmDhQ-11" value="&lt;p style=&quot;border: 0px solid rgb(227, 227, 227); box-sizing: border-box; --tw-border-spacing-x: 0; --tw-border-spacing-y: 0; --tw-translate-x: 0; --tw-translate-y: 0; --tw-rotate: 0; --tw-skew-x: 0; --tw-skew-y: 0; --tw-scale-x: 1; --tw-scale-y: 1; --tw-pan-x: ; --tw-pan-y: ; --tw-pinch-zoom: ; --tw-scroll-snap-strictness: proximity; --tw-gradient-from-position: ; --tw-gradient-via-position: ; --tw-gradient-to-position: ; --tw-ordinal: ; --tw-slashed-zero: ; --tw-numeric-figure: ; --tw-numeric-spacing: ; --tw-numeric-fraction: ; --tw-ring-inset: ; --tw-ring-offset-width: 0px; --tw-ring-offset-color: #fff; --tw-ring-color: rgba(69,89,164,.5); --tw-ring-offset-shadow: 0 0 transparent; --tw-ring-shadow: 0 0 transparent; --tw-shadow: 0 0 transparent; --tw-shadow-colored: 0 0 transparent; --tw-blur: ; --tw-brightness: ; --tw-contrast: ; --tw-grayscale: ; --tw-hue-rotate: ; --tw-invert: ; --tw-saturate: ; --tw-sepia: ; --tw-drop-shadow: ; --tw-backdrop-blur: ; --tw-backdrop-brightness: ; --tw-backdrop-contrast: ; --tw-backdrop-grayscale: ; --tw-backdrop-hue-rotate: ; --tw-backdrop-invert: ; --tw-backdrop-opacity: ; --tw-backdrop-saturate: ; --tw-backdrop-sepia: ; font-size: 1.25em; margin: 1rem 0px 0.5rem; line-height: 1.6; color: rgb(13, 13, 13); text-align: start;&quot;&gt;&lt;font&gt;Microcontroller&lt;/font&gt;&lt;/p&gt;" style="text;html=1;align=center;verticalAlign=middle;resizable=0;points=[];autosize=1;strokeColor=none;fillColor=none;fontFamily=Comic Sans MS;fontStyle=0;labelBackgroundColor=none;labelBorderColor=none;" parent="oWpsuCF8S4G1BgzhmDhQ-10" vertex="1">
          <mxGeometry x="55" y="30" width="130" height="60" as="geometry" />
        </mxCell>
        <mxCell id="oWpsuCF8S4G1BgzhmDhQ-13" value="" style="swimlane;startSize=0;strokeWidth=3;sketch=1;curveFitting=1;jiggle=2;rounded=1;" parent="oWpsuCF8S4G1BgzhmDhQ-3" vertex="1">
          <mxGeometry x="410" y="190" width="100" height="90" as="geometry" />
        </mxCell>
        <mxCell id="oWpsuCF8S4G1BgzhmDhQ-14" value="&lt;p style=&quot;border: 0px solid rgb(227, 227, 227); box-sizing: border-box; --tw-border-spacing-x: 0; --tw-border-spacing-y: 0; --tw-translate-x: 0; --tw-translate-y: 0; --tw-rotate: 0; --tw-skew-x: 0; --tw-skew-y: 0; --tw-scale-x: 1; --tw-scale-y: 1; --tw-pan-x: ; --tw-pan-y: ; --tw-pinch-zoom: ; --tw-scroll-snap-strictness: proximity; --tw-gradient-from-position: ; --tw-gradient-via-position: ; --tw-gradient-to-position: ; --tw-ordinal: ; --tw-slashed-zero: ; --tw-numeric-figure: ; --tw-numeric-spacing: ; --tw-numeric-fraction: ; --tw-ring-inset: ; --tw-ring-offset-width: 0px; --tw-ring-offset-color: #fff; --tw-ring-color: rgba(69,89,164,.5); --tw-ring-offset-shadow: 0 0 transparent; --tw-ring-shadow: 0 0 transparent; --tw-shadow: 0 0 transparent; --tw-shadow-colored: 0 0 transparent; --tw-blur: ; --tw-brightness: ; --tw-contrast: ; --tw-grayscale: ; --tw-hue-rotate: ; --tw-invert: ; --tw-saturate: ; --tw-sepia: ; --tw-drop-shadow: ; --tw-backdrop-blur: ; --tw-backdrop-brightness: ; --tw-backdrop-contrast: ; --tw-backdrop-grayscale: ; --tw-backdrop-hue-rotate: ; --tw-backdrop-invert: ; --tw-backdrop-opacity: ; --tw-backdrop-saturate: ; --tw-backdrop-sepia: ; font-size: 1.25em; margin: 1rem 0px 0.5rem; line-height: 1.6; color: rgb(13, 13, 13); text-align: start;&quot;&gt;&lt;font&gt;Pump&lt;/font&gt;&lt;/p&gt;" style="text;html=1;align=center;verticalAlign=middle;resizable=0;points=[];autosize=1;strokeColor=none;fillColor=none;fontFamily=Comic Sans MS;fontStyle=0;labelBackgroundColor=none;labelBorderColor=none;" parent="oWpsuCF8S4G1BgzhmDhQ-13" vertex="1">
          <mxGeometry x="20" y="15" width="60" height="60" as="geometry" />
        </mxCell>
        <mxCell id="oWpsuCF8S4G1BgzhmDhQ-30" style="rounded=0;orthogonalLoop=1;jettySize=auto;html=1;exitX=1;exitY=0.5;exitDx=0;exitDy=0;entryX=0;entryY=0.5;entryDx=0;entryDy=0;edgeStyle=orthogonalEdgeStyle;endArrow=none;endFill=0;strokeWidth=2;" parent="oWpsuCF8S4G1BgzhmDhQ-3" source="oWpsuCF8S4G1BgzhmDhQ-27" target="oWpsuCF8S4G1BgzhmDhQ-10" edge="1">
          <mxGeometry relative="1" as="geometry" />
        </mxCell>
        <mxCell id="oWpsuCF8S4G1BgzhmDhQ-31" value="&lt;font face=&quot;Comic Sans MS&quot;&gt;SPI&lt;/font&gt;" style="edgeLabel;html=1;align=center;verticalAlign=middle;resizable=0;points=[];" parent="oWpsuCF8S4G1BgzhmDhQ-30" vertex="1" connectable="0">
          <mxGeometry x="0.1415" y="3" relative="1" as="geometry">
            <mxPoint y="1" as="offset" />
          </mxGeometry>
        </mxCell>
        <mxCell id="oWpsuCF8S4G1BgzhmDhQ-27" value="" style="swimlane;startSize=0;strokeWidth=3;sketch=1;curveFitting=1;jiggle=2;rounded=1;" parent="oWpsuCF8S4G1BgzhmDhQ-3" vertex="1">
          <mxGeometry x="285" y="60" width="100" height="90" as="geometry" />
        </mxCell>
        <mxCell id="oWpsuCF8S4G1BgzhmDhQ-28" value="&lt;p style=&quot;border: 0px solid rgb(227, 227, 227); box-sizing: border-box; --tw-border-spacing-x: 0; --tw-border-spacing-y: 0; --tw-translate-x: 0; --tw-translate-y: 0; --tw-rotate: 0; --tw-skew-x: 0; --tw-skew-y: 0; --tw-scale-x: 1; --tw-scale-y: 1; --tw-pan-x: ; --tw-pan-y: ; --tw-pinch-zoom: ; --tw-scroll-snap-strictness: proximity; --tw-gradient-from-position: ; --tw-gradient-via-position: ; --tw-gradient-to-position: ; --tw-ordinal: ; --tw-slashed-zero: ; --tw-numeric-figure: ; --tw-numeric-spacing: ; --tw-numeric-fraction: ; --tw-ring-inset: ; --tw-ring-offset-width: 0px; --tw-ring-offset-color: #fff; --tw-ring-color: rgba(69,89,164,.5); --tw-ring-offset-shadow: 0 0 transparent; --tw-ring-shadow: 0 0 transparent; --tw-shadow: 0 0 transparent; --tw-shadow-colored: 0 0 transparent; --tw-blur: ; --tw-brightness: ; --tw-contrast: ; --tw-grayscale: ; --tw-hue-rotate: ; --tw-invert: ; --tw-saturate: ; --tw-sepia: ; --tw-drop-shadow: ; --tw-backdrop-blur: ; --tw-backdrop-brightness: ; --tw-backdrop-contrast: ; --tw-backdrop-grayscale: ; --tw-backdrop-hue-rotate: ; --tw-backdrop-invert: ; --tw-backdrop-opacity: ; --tw-backdrop-saturate: ; --tw-backdrop-sepia: ; font-size: 1.25em; margin: 1rem 0px 0.5rem; line-height: 1.6; color: rgb(13, 13, 13); text-align: start;&quot;&gt;&lt;font&gt;Flash&lt;/font&gt;&lt;/p&gt;" style="text;html=1;align=center;verticalAlign=middle;resizable=0;points=[];autosize=1;strokeColor=none;fillColor=none;fontFamily=Comic Sans MS;fontStyle=0;labelBackgroundColor=none;labelBorderColor=none;" parent="oWpsuCF8S4G1BgzhmDhQ-27" vertex="1">
          <mxGeometry x="20" y="15" width="60" height="60" as="geometry" />
        </mxCell>
        <mxCell id="oWpsuCF8S4G1BgzhmDhQ-8" value="" style="swimlane;startSize=0;strokeWidth=3;sketch=1;curveFitting=1;jiggle=2;rounded=1;" parent="oWpsuCF8S4G1BgzhmDhQ-3" vertex="1">
          <mxGeometry x="200" y="190" width="100" height="90" as="geometry" />
        </mxCell>
        <mxCell id="oWpsuCF8S4G1BgzhmDhQ-9" value="&lt;p style=&quot;border: 0px solid rgb(227, 227, 227); box-sizing: border-box; --tw-border-spacing-x: 0; --tw-border-spacing-y: 0; --tw-translate-x: 0; --tw-translate-y: 0; --tw-rotate: 0; --tw-skew-x: 0; --tw-skew-y: 0; --tw-scale-x: 1; --tw-scale-y: 1; --tw-pan-x: ; --tw-pan-y: ; --tw-pinch-zoom: ; --tw-scroll-snap-strictness: proximity; --tw-gradient-from-position: ; --tw-gradient-via-position: ; --tw-gradient-to-position: ; --tw-ordinal: ; --tw-slashed-zero: ; --tw-numeric-figure: ; --tw-numeric-spacing: ; --tw-numeric-fraction: ; --tw-ring-inset: ; --tw-ring-offset-width: 0px; --tw-ring-offset-color: #fff; --tw-ring-color: rgba(69,89,164,.5); --tw-ring-offset-shadow: 0 0 transparent; --tw-ring-shadow: 0 0 transparent; --tw-shadow: 0 0 transparent; --tw-shadow-colored: 0 0 transparent; --tw-blur: ; --tw-brightness: ; --tw-contrast: ; --tw-grayscale: ; --tw-hue-rotate: ; --tw-invert: ; --tw-saturate: ; --tw-sepia: ; --tw-drop-shadow: ; --tw-backdrop-blur: ; --tw-backdrop-brightness: ; --tw-backdrop-contrast: ; --tw-backdrop-grayscale: ; --tw-backdrop-hue-rotate: ; --tw-backdrop-invert: ; --tw-backdrop-opacity: ; --tw-backdrop-saturate: ; --tw-backdrop-sepia: ; font-size: 1.25em; margin: 1rem 0px 0.5rem; line-height: 1.6; color: rgb(13, 13, 13); text-align: start;&quot;&gt;&lt;font&gt;BLE&lt;/font&gt;&lt;/p&gt;" style="text;html=1;align=center;verticalAlign=middle;resizable=0;points=[];autosize=1;strokeColor=none;fillColor=none;fontFamily=Comic Sans MS;fontStyle=0;labelBackgroundColor=none;labelBorderColor=none;" parent="oWpsuCF8S4G1BgzhmDhQ-8" vertex="1">
          <mxGeometry x="25" y="15" width="50" height="60" as="geometry" />
        </mxCell>
        <mxCell id="oWpsuCF8S4G1BgzhmDhQ-15" value="Software architecture block diagram" style="text;html=1;align=center;verticalAlign=middle;whiteSpace=wrap;rounded=0;fontStyle=1" parent="1" vertex="1">
          <mxGeometry x="40" y="840" width="210" height="30" as="geometry" />
        </mxCell>
        <mxCell id="oWpsuCF8S4G1BgzhmDhQ-16" value="" style="swimlane;startSize=0;strokeWidth=3;gradientColor=none;rounded=1;sketch=1;curveFitting=1;jiggle=2;shadow=0;glass=0;" parent="1" vertex="1">
          <mxGeometry x="40" y="490" width="760" height="340" as="geometry" />
        </mxCell>
        <mxCell id="oWpsuCF8S4G1BgzhmDhQ-17" value="" style="swimlane;startSize=0;strokeWidth=3;sketch=1;curveFitting=1;jiggle=2;rounded=1;" parent="oWpsuCF8S4G1BgzhmDhQ-16" vertex="1">
          <mxGeometry x="30" y="20" width="130" height="120" as="geometry" />
        </mxCell>
        <mxCell id="oWpsuCF8S4G1BgzhmDhQ-18" value="&lt;p style=&quot;border: 0px solid rgb(227, 227, 227); box-sizing: border-box; --tw-border-spacing-x: 0; --tw-border-spacing-y: 0; --tw-translate-x: 0; --tw-translate-y: 0; --tw-rotate: 0; --tw-skew-x: 0; --tw-skew-y: 0; --tw-scale-x: 1; --tw-scale-y: 1; --tw-pan-x: ; --tw-pan-y: ; --tw-pinch-zoom: ; --tw-scroll-snap-strictness: proximity; --tw-gradient-from-position: ; --tw-gradient-via-position: ; --tw-gradient-to-position: ; --tw-ordinal: ; --tw-slashed-zero: ; --tw-numeric-figure: ; --tw-numeric-spacing: ; --tw-numeric-fraction: ; --tw-ring-inset: ; --tw-ring-offset-width: 0px; --tw-ring-offset-color: #fff; --tw-ring-color: rgba(69,89,164,.5); --tw-ring-offset-shadow: 0 0 transparent; --tw-ring-shadow: 0 0 transparent; --tw-shadow: 0 0 transparent; --tw-shadow-colored: 0 0 transparent; --tw-blur: ; --tw-brightness: ; --tw-contrast: ; --tw-grayscale: ; --tw-hue-rotate: ; --tw-invert: ; --tw-saturate: ; --tw-sepia: ; --tw-drop-shadow: ; --tw-backdrop-blur: ; --tw-backdrop-brightness: ; --tw-backdrop-contrast: ; --tw-backdrop-grayscale: ; --tw-backdrop-hue-rotate: ; --tw-backdrop-invert: ; --tw-backdrop-opacity: ; --tw-backdrop-saturate: ; --tw-backdrop-sepia: ; font-size: 1.25em; margin: 1rem 0px 0.5rem; line-height: 1.6; color: rgb(13, 13, 13); text-align: start;&quot;&gt;&lt;font&gt;Power&lt;/font&gt;&lt;/p&gt;" style="text;html=1;align=center;verticalAlign=middle;resizable=0;points=[];autosize=1;strokeColor=none;fillColor=none;fontFamily=Comic Sans MS;fontStyle=0;labelBackgroundColor=none;labelBorderColor=none;" parent="oWpsuCF8S4G1BgzhmDhQ-17" vertex="1">
          <mxGeometry x="35" y="30" width="60" height="60" as="geometry" />
        </mxCell>
        <mxCell id="oWpsuCF8S4G1BgzhmDhQ-19" value="" style="swimlane;startSize=0;strokeWidth=3;sketch=1;curveFitting=1;jiggle=2;rounded=1;" parent="oWpsuCF8S4G1BgzhmDhQ-16" vertex="1">
          <mxGeometry x="30" y="190" width="100" height="90" as="geometry" />
        </mxCell>
        <mxCell id="oWpsuCF8S4G1BgzhmDhQ-20" value="&lt;p style=&quot;border: 0px solid rgb(227, 227, 227); box-sizing: border-box; --tw-border-spacing-x: 0; --tw-border-spacing-y: 0; --tw-translate-x: 0; --tw-translate-y: 0; --tw-rotate: 0; --tw-skew-x: 0; --tw-skew-y: 0; --tw-scale-x: 1; --tw-scale-y: 1; --tw-pan-x: ; --tw-pan-y: ; --tw-pinch-zoom: ; --tw-scroll-snap-strictness: proximity; --tw-gradient-from-position: ; --tw-gradient-via-position: ; --tw-gradient-to-position: ; --tw-ordinal: ; --tw-slashed-zero: ; --tw-numeric-figure: ; --tw-numeric-spacing: ; --tw-numeric-fraction: ; --tw-ring-inset: ; --tw-ring-offset-width: 0px; --tw-ring-offset-color: #fff; --tw-ring-color: rgba(69,89,164,.5); --tw-ring-offset-shadow: 0 0 transparent; --tw-ring-shadow: 0 0 transparent; --tw-shadow: 0 0 transparent; --tw-shadow-colored: 0 0 transparent; --tw-blur: ; --tw-brightness: ; --tw-contrast: ; --tw-grayscale: ; --tw-hue-rotate: ; --tw-invert: ; --tw-saturate: ; --tw-sepia: ; --tw-drop-shadow: ; --tw-backdrop-blur: ; --tw-backdrop-brightness: ; --tw-backdrop-contrast: ; --tw-backdrop-grayscale: ; --tw-backdrop-hue-rotate: ; --tw-backdrop-invert: ; --tw-backdrop-opacity: ; --tw-backdrop-saturate: ; --tw-backdrop-sepia: ; font-size: 1.25em; margin: 1rem 0px 0.5rem; line-height: 1.6; color: rgb(13, 13, 13); text-align: start;&quot;&gt;&lt;font&gt;Infrared&lt;/font&gt;&lt;/p&gt;" style="text;html=1;align=center;verticalAlign=middle;resizable=0;points=[];autosize=1;strokeColor=none;fillColor=none;fontFamily=Comic Sans MS;fontStyle=0;labelBackgroundColor=none;labelBorderColor=none;" parent="oWpsuCF8S4G1BgzhmDhQ-19" vertex="1">
          <mxGeometry x="5" y="15" width="90" height="60" as="geometry" />
        </mxCell>
        <mxCell id="oWpsuCF8S4G1BgzhmDhQ-21" value="" style="swimlane;startSize=0;strokeWidth=3;sketch=1;curveFitting=1;jiggle=2;rounded=1;" parent="oWpsuCF8S4G1BgzhmDhQ-16" vertex="1">
          <mxGeometry x="440" y="30" width="240" height="120" as="geometry" />
        </mxCell>
        <mxCell id="oWpsuCF8S4G1BgzhmDhQ-22" value="&lt;p style=&quot;border: 0px solid rgb(227, 227, 227); box-sizing: border-box; --tw-border-spacing-x: 0; --tw-border-spacing-y: 0; --tw-translate-x: 0; --tw-translate-y: 0; --tw-rotate: 0; --tw-skew-x: 0; --tw-skew-y: 0; --tw-scale-x: 1; --tw-scale-y: 1; --tw-pan-x: ; --tw-pan-y: ; --tw-pinch-zoom: ; --tw-scroll-snap-strictness: proximity; --tw-gradient-from-position: ; --tw-gradient-via-position: ; --tw-gradient-to-position: ; --tw-ordinal: ; --tw-slashed-zero: ; --tw-numeric-figure: ; --tw-numeric-spacing: ; --tw-numeric-fraction: ; --tw-ring-inset: ; --tw-ring-offset-width: 0px; --tw-ring-offset-color: #fff; --tw-ring-color: rgba(69,89,164,.5); --tw-ring-offset-shadow: 0 0 transparent; --tw-ring-shadow: 0 0 transparent; --tw-shadow: 0 0 transparent; --tw-shadow-colored: 0 0 transparent; --tw-blur: ; --tw-brightness: ; --tw-contrast: ; --tw-grayscale: ; --tw-hue-rotate: ; --tw-invert: ; --tw-saturate: ; --tw-sepia: ; --tw-drop-shadow: ; --tw-backdrop-blur: ; --tw-backdrop-brightness: ; --tw-backdrop-contrast: ; --tw-backdrop-grayscale: ; --tw-backdrop-hue-rotate: ; --tw-backdrop-invert: ; --tw-backdrop-opacity: ; --tw-backdrop-saturate: ; --tw-backdrop-sepia: ; font-size: 1.25em; margin: 1rem 0px 0.5rem; line-height: 1.6; color: rgb(13, 13, 13); text-align: start;&quot;&gt;&lt;font&gt;Microcontroller&lt;/font&gt;&lt;/p&gt;" style="text;html=1;align=center;verticalAlign=middle;resizable=0;points=[];autosize=1;strokeColor=none;fillColor=none;fontFamily=Comic Sans MS;fontStyle=0;labelBackgroundColor=none;labelBorderColor=none;" parent="oWpsuCF8S4G1BgzhmDhQ-21" vertex="1">
          <mxGeometry x="55" y="30" width="130" height="60" as="geometry" />
        </mxCell>
        <mxCell id="oWpsuCF8S4G1BgzhmDhQ-34" value="&lt;font face=&quot;Comic Sans MS&quot;&gt;SPI&lt;/font&gt;" style="rounded=0;whiteSpace=wrap;html=1;sketch=1;curveFitting=1;jiggle=2;strokeWidth=3;" parent="oWpsuCF8S4G1BgzhmDhQ-21" vertex="1">
          <mxGeometry y="20" width="60" height="20" as="geometry" />
        </mxCell>
        <mxCell id="oWpsuCF8S4G1BgzhmDhQ-23" value="" style="swimlane;startSize=0;strokeWidth=3;sketch=1;curveFitting=1;jiggle=2;rounded=1;" parent="oWpsuCF8S4G1BgzhmDhQ-16" vertex="1">
          <mxGeometry x="410" y="190" width="100" height="90" as="geometry" />
        </mxCell>
        <mxCell id="oWpsuCF8S4G1BgzhmDhQ-24" value="&lt;p style=&quot;border: 0px solid rgb(227, 227, 227); box-sizing: border-box; --tw-border-spacing-x: 0; --tw-border-spacing-y: 0; --tw-translate-x: 0; --tw-translate-y: 0; --tw-rotate: 0; --tw-skew-x: 0; --tw-skew-y: 0; --tw-scale-x: 1; --tw-scale-y: 1; --tw-pan-x: ; --tw-pan-y: ; --tw-pinch-zoom: ; --tw-scroll-snap-strictness: proximity; --tw-gradient-from-position: ; --tw-gradient-via-position: ; --tw-gradient-to-position: ; --tw-ordinal: ; --tw-slashed-zero: ; --tw-numeric-figure: ; --tw-numeric-spacing: ; --tw-numeric-fraction: ; --tw-ring-inset: ; --tw-ring-offset-width: 0px; --tw-ring-offset-color: #fff; --tw-ring-color: rgba(69,89,164,.5); --tw-ring-offset-shadow: 0 0 transparent; --tw-ring-shadow: 0 0 transparent; --tw-shadow: 0 0 transparent; --tw-shadow-colored: 0 0 transparent; --tw-blur: ; --tw-brightness: ; --tw-contrast: ; --tw-grayscale: ; --tw-hue-rotate: ; --tw-invert: ; --tw-saturate: ; --tw-sepia: ; --tw-drop-shadow: ; --tw-backdrop-blur: ; --tw-backdrop-brightness: ; --tw-backdrop-contrast: ; --tw-backdrop-grayscale: ; --tw-backdrop-hue-rotate: ; --tw-backdrop-invert: ; --tw-backdrop-opacity: ; --tw-backdrop-saturate: ; --tw-backdrop-sepia: ; font-size: 1.25em; margin: 1rem 0px 0.5rem; line-height: 1.6; color: rgb(13, 13, 13); text-align: start;&quot;&gt;&lt;font&gt;Pump&lt;/font&gt;&lt;/p&gt;" style="text;html=1;align=center;verticalAlign=middle;resizable=0;points=[];autosize=1;strokeColor=none;fillColor=none;fontFamily=Comic Sans MS;fontStyle=0;labelBackgroundColor=none;labelBorderColor=none;" parent="oWpsuCF8S4G1BgzhmDhQ-23" vertex="1">
          <mxGeometry x="20" y="15" width="60" height="60" as="geometry" />
        </mxCell>
        <mxCell id="oWpsuCF8S4G1BgzhmDhQ-35" style="edgeStyle=orthogonalEdgeStyle;rounded=0;orthogonalLoop=1;jettySize=auto;html=1;exitX=1;exitY=0.25;exitDx=0;exitDy=0;entryX=0;entryY=0.75;entryDx=0;entryDy=0;endArrow=none;endFill=0;strokeWidth=2;" parent="oWpsuCF8S4G1BgzhmDhQ-16" source="oWpsuCF8S4G1BgzhmDhQ-32" target="oWpsuCF8S4G1BgzhmDhQ-34" edge="1">
          <mxGeometry relative="1" as="geometry" />
        </mxCell>
        <mxCell id="oWpsuCF8S4G1BgzhmDhQ-32" value="" style="swimlane;startSize=0;strokeWidth=3;sketch=1;curveFitting=1;jiggle=2;rounded=1;" parent="oWpsuCF8S4G1BgzhmDhQ-16" vertex="1">
          <mxGeometry x="285" y="45" width="100" height="95" as="geometry" />
        </mxCell>
        <mxCell id="oWpsuCF8S4G1BgzhmDhQ-33" value="&lt;p style=&quot;border: 0px solid rgb(227, 227, 227); box-sizing: border-box; --tw-border-spacing-x: 0; --tw-border-spacing-y: 0; --tw-translate-x: 0; --tw-translate-y: 0; --tw-rotate: 0; --tw-skew-x: 0; --tw-skew-y: 0; --tw-scale-x: 1; --tw-scale-y: 1; --tw-pan-x: ; --tw-pan-y: ; --tw-pinch-zoom: ; --tw-scroll-snap-strictness: proximity; --tw-gradient-from-position: ; --tw-gradient-via-position: ; --tw-gradient-to-position: ; --tw-ordinal: ; --tw-slashed-zero: ; --tw-numeric-figure: ; --tw-numeric-spacing: ; --tw-numeric-fraction: ; --tw-ring-inset: ; --tw-ring-offset-width: 0px; --tw-ring-offset-color: #fff; --tw-ring-color: rgba(69,89,164,.5); --tw-ring-offset-shadow: 0 0 transparent; --tw-ring-shadow: 0 0 transparent; --tw-shadow: 0 0 transparent; --tw-shadow-colored: 0 0 transparent; --tw-blur: ; --tw-brightness: ; --tw-contrast: ; --tw-grayscale: ; --tw-hue-rotate: ; --tw-invert: ; --tw-saturate: ; --tw-sepia: ; --tw-drop-shadow: ; --tw-backdrop-blur: ; --tw-backdrop-brightness: ; --tw-backdrop-contrast: ; --tw-backdrop-grayscale: ; --tw-backdrop-hue-rotate: ; --tw-backdrop-invert: ; --tw-backdrop-opacity: ; --tw-backdrop-saturate: ; --tw-backdrop-sepia: ; font-size: 1.25em; margin: 1rem 0px 0.5rem; line-height: 1.6; color: rgb(13, 13, 13);&quot;&gt;&lt;font&gt;Flash&lt;/font&gt;&lt;/p&gt;&lt;p style=&quot;border: 0px solid rgb(227, 227, 227); box-sizing: border-box; --tw-border-spacing-x: 0; --tw-border-spacing-y: 0; --tw-translate-x: 0; --tw-translate-y: 0; --tw-rotate: 0; --tw-skew-x: 0; --tw-skew-y: 0; --tw-scale-x: 1; --tw-scale-y: 1; --tw-pan-x: ; --tw-pan-y: ; --tw-pinch-zoom: ; --tw-scroll-snap-strictness: proximity; --tw-gradient-from-position: ; --tw-gradient-via-position: ; --tw-gradient-to-position: ; --tw-ordinal: ; --tw-slashed-zero: ; --tw-numeric-figure: ; --tw-numeric-spacing: ; --tw-numeric-fraction: ; --tw-ring-inset: ; --tw-ring-offset-width: 0px; --tw-ring-offset-color: #fff; --tw-ring-color: rgba(69,89,164,.5); --tw-ring-offset-shadow: 0 0 transparent; --tw-ring-shadow: 0 0 transparent; --tw-shadow: 0 0 transparent; --tw-shadow-colored: 0 0 transparent; --tw-blur: ; --tw-brightness: ; --tw-contrast: ; --tw-grayscale: ; --tw-hue-rotate: ; --tw-invert: ; --tw-saturate: ; --tw-sepia: ; --tw-drop-shadow: ; --tw-backdrop-blur: ; --tw-backdrop-brightness: ; --tw-backdrop-contrast: ; --tw-backdrop-grayscale: ; --tw-backdrop-hue-rotate: ; --tw-backdrop-invert: ; --tw-backdrop-opacity: ; --tw-backdrop-saturate: ; --tw-backdrop-sepia: ; font-size: 1.25em; margin: 1rem 0px 0.5rem; line-height: 1.6; color: rgb(13, 13, 13);&quot;&gt;&lt;font&gt;memory&lt;/font&gt;&lt;/p&gt;" style="text;html=1;align=center;verticalAlign=middle;resizable=0;points=[];autosize=1;strokeColor=none;fillColor=none;fontFamily=Comic Sans MS;fontStyle=0;labelBackgroundColor=none;labelBorderColor=none;" parent="oWpsuCF8S4G1BgzhmDhQ-32" vertex="1">
          <mxGeometry x="10" y="-5" width="80" height="100" as="geometry" />
        </mxCell>
        <mxCell id="oWpsuCF8S4G1BgzhmDhQ-25" value="" style="swimlane;startSize=0;strokeWidth=3;sketch=1;curveFitting=1;jiggle=2;rounded=1;" parent="1" vertex="1">
          <mxGeometry x="200" y="680" width="100" height="90" as="geometry" />
        </mxCell>
        <mxCell id="oWpsuCF8S4G1BgzhmDhQ-26" value="&lt;p style=&quot;border: 0px solid rgb(227, 227, 227); box-sizing: border-box; --tw-border-spacing-x: 0; --tw-border-spacing-y: 0; --tw-translate-x: 0; --tw-translate-y: 0; --tw-rotate: 0; --tw-skew-x: 0; --tw-skew-y: 0; --tw-scale-x: 1; --tw-scale-y: 1; --tw-pan-x: ; --tw-pan-y: ; --tw-pinch-zoom: ; --tw-scroll-snap-strictness: proximity; --tw-gradient-from-position: ; --tw-gradient-via-position: ; --tw-gradient-to-position: ; --tw-ordinal: ; --tw-slashed-zero: ; --tw-numeric-figure: ; --tw-numeric-spacing: ; --tw-numeric-fraction: ; --tw-ring-inset: ; --tw-ring-offset-width: 0px; --tw-ring-offset-color: #fff; --tw-ring-color: rgba(69,89,164,.5); --tw-ring-offset-shadow: 0 0 transparent; --tw-ring-shadow: 0 0 transparent; --tw-shadow: 0 0 transparent; --tw-shadow-colored: 0 0 transparent; --tw-blur: ; --tw-brightness: ; --tw-contrast: ; --tw-grayscale: ; --tw-hue-rotate: ; --tw-invert: ; --tw-saturate: ; --tw-sepia: ; --tw-drop-shadow: ; --tw-backdrop-blur: ; --tw-backdrop-brightness: ; --tw-backdrop-contrast: ; --tw-backdrop-grayscale: ; --tw-backdrop-hue-rotate: ; --tw-backdrop-invert: ; --tw-backdrop-opacity: ; --tw-backdrop-saturate: ; --tw-backdrop-sepia: ; font-size: 1.25em; margin: 1rem 0px 0.5rem; line-height: 1.6; color: rgb(13, 13, 13); text-align: start;&quot;&gt;&lt;font&gt;BLE&lt;/font&gt;&lt;/p&gt;" style="text;html=1;align=center;verticalAlign=middle;resizable=0;points=[];autosize=1;strokeColor=none;fillColor=none;fontFamily=Comic Sans MS;fontStyle=0;labelBackgroundColor=none;labelBorderColor=none;" parent="oWpsuCF8S4G1BgzhmDhQ-25" vertex="1">
          <mxGeometry x="25" y="15" width="50" height="60" as="geometry" />
        </mxCell>
        <mxCell id="oWpsuCF8S4G1BgzhmDhQ-36" value="" style="swimlane;startSize=0;strokeWidth=3;sketch=1;curveFitting=1;jiggle=2;rounded=1;" parent="1" vertex="1">
          <mxGeometry x="40" y="930" width="140" height="40" as="geometry" />
        </mxCell>
        <mxCell id="oWpsuCF8S4G1BgzhmDhQ-37" value="&lt;p style=&quot;border: 0px solid rgb(227, 227, 227); box-sizing: border-box; --tw-border-spacing-x: 0; --tw-border-spacing-y: 0; --tw-translate-x: 0; --tw-translate-y: 0; --tw-rotate: 0; --tw-skew-x: 0; --tw-skew-y: 0; --tw-scale-x: 1; --tw-scale-y: 1; --tw-pan-x: ; --tw-pan-y: ; --tw-pinch-zoom: ; --tw-scroll-snap-strictness: proximity; --tw-gradient-from-position: ; --tw-gradient-via-position: ; --tw-gradient-to-position: ; --tw-ordinal: ; --tw-slashed-zero: ; --tw-numeric-figure: ; --tw-numeric-spacing: ; --tw-numeric-fraction: ; --tw-ring-inset: ; --tw-ring-offset-width: 0px; --tw-ring-offset-color: #fff; --tw-ring-color: rgba(69,89,164,.5); --tw-ring-offset-shadow: 0 0 transparent; --tw-ring-shadow: 0 0 transparent; --tw-shadow: 0 0 transparent; --tw-shadow-colored: 0 0 transparent; --tw-blur: ; --tw-brightness: ; --tw-contrast: ; --tw-grayscale: ; --tw-hue-rotate: ; --tw-invert: ; --tw-saturate: ; --tw-sepia: ; --tw-drop-shadow: ; --tw-backdrop-blur: ; --tw-backdrop-brightness: ; --tw-backdrop-contrast: ; --tw-backdrop-grayscale: ; --tw-backdrop-hue-rotate: ; --tw-backdrop-invert: ; --tw-backdrop-opacity: ; --tw-backdrop-saturate: ; --tw-backdrop-sepia: ; font-size: 1.25em; margin: 1rem 0px 0.5rem; line-height: 1.6; color: rgb(13, 13, 13); text-align: start;&quot;&gt;&lt;font&gt;Flash&lt;/font&gt;&lt;/p&gt;" style="text;html=1;align=center;verticalAlign=middle;resizable=0;points=[];autosize=1;strokeColor=none;fillColor=none;fontFamily=Comic Sans MS;fontStyle=0;labelBackgroundColor=none;labelBorderColor=none;" parent="oWpsuCF8S4G1BgzhmDhQ-36" vertex="1">
          <mxGeometry x="40" y="-10" width="60" height="60" as="geometry" />
        </mxCell>
        <mxCell id="oWpsuCF8S4G1BgzhmDhQ-38" value="Software block diagram" style="text;html=1;align=left;verticalAlign=middle;whiteSpace=wrap;rounded=0;fontStyle=1" parent="1" vertex="1">
          <mxGeometry x="40" y="1230" width="210" height="30" as="geometry" />
        </mxCell>
        <mxCell id="oWpsuCF8S4G1BgzhmDhQ-39" value="" style="swimlane;startSize=0;strokeWidth=3;sketch=1;curveFitting=1;jiggle=2;rounded=1;" parent="1" vertex="1">
          <mxGeometry x="40" y="970" width="140" height="50" as="geometry" />
        </mxCell>
        <mxCell id="oWpsuCF8S4G1BgzhmDhQ-40" value="&lt;p style=&quot;border: 0px solid rgb(227, 227, 227); box-sizing: border-box; --tw-border-spacing-x: 0; --tw-border-spacing-y: 0; --tw-translate-x: 0; --tw-translate-y: 0; --tw-rotate: 0; --tw-skew-x: 0; --tw-skew-y: 0; --tw-scale-x: 1; --tw-scale-y: 1; --tw-pan-x: ; --tw-pan-y: ; --tw-pinch-zoom: ; --tw-scroll-snap-strictness: proximity; --tw-gradient-from-position: ; --tw-gradient-via-position: ; --tw-gradient-to-position: ; --tw-ordinal: ; --tw-slashed-zero: ; --tw-numeric-figure: ; --tw-numeric-spacing: ; --tw-numeric-fraction: ; --tw-ring-inset: ; --tw-ring-offset-width: 0px; --tw-ring-offset-color: #fff; --tw-ring-color: rgba(69,89,164,.5); --tw-ring-offset-shadow: 0 0 transparent; --tw-ring-shadow: 0 0 transparent; --tw-shadow: 0 0 transparent; --tw-shadow-colored: 0 0 transparent; --tw-blur: ; --tw-brightness: ; --tw-contrast: ; --tw-grayscale: ; --tw-hue-rotate: ; --tw-invert: ; --tw-saturate: ; --tw-sepia: ; --tw-drop-shadow: ; --tw-backdrop-blur: ; --tw-backdrop-brightness: ; --tw-backdrop-contrast: ; --tw-backdrop-grayscale: ; --tw-backdrop-hue-rotate: ; --tw-backdrop-invert: ; --tw-backdrop-opacity: ; --tw-backdrop-saturate: ; --tw-backdrop-sepia: ; font-size: 1.25em; margin: 1rem 0px 0.5rem; line-height: 1.6; color: rgb(13, 13, 13); text-align: start;&quot;&gt;&lt;font&gt;Version&lt;/font&gt;&lt;/p&gt;" style="text;html=1;align=center;verticalAlign=middle;resizable=0;points=[];autosize=1;strokeColor=none;fillColor=none;fontFamily=Comic Sans MS;fontStyle=0;labelBackgroundColor=none;labelBorderColor=none;" parent="oWpsuCF8S4G1BgzhmDhQ-39" vertex="1">
          <mxGeometry x="30" y="-10" width="80" height="60" as="geometry" />
        </mxCell>
        <mxCell id="oWpsuCF8S4G1BgzhmDhQ-41" value="" style="swimlane;startSize=0;strokeWidth=3;sketch=1;curveFitting=1;jiggle=2;rounded=1;" parent="1" vertex="1">
          <mxGeometry x="40" y="1020" width="140" height="50" as="geometry" />
        </mxCell>
        <mxCell id="oWpsuCF8S4G1BgzhmDhQ-42" value="&lt;p style=&quot;border: 0px solid rgb(227, 227, 227); box-sizing: border-box; --tw-border-spacing-x: 0; --tw-border-spacing-y: 0; --tw-translate-x: 0; --tw-translate-y: 0; --tw-rotate: 0; --tw-skew-x: 0; --tw-skew-y: 0; --tw-scale-x: 1; --tw-scale-y: 1; --tw-pan-x: ; --tw-pan-y: ; --tw-pinch-zoom: ; --tw-scroll-snap-strictness: proximity; --tw-gradient-from-position: ; --tw-gradient-via-position: ; --tw-gradient-to-position: ; --tw-ordinal: ; --tw-slashed-zero: ; --tw-numeric-figure: ; --tw-numeric-spacing: ; --tw-numeric-fraction: ; --tw-ring-inset: ; --tw-ring-offset-width: 0px; --tw-ring-offset-color: #fff; --tw-ring-color: rgba(69,89,164,.5); --tw-ring-offset-shadow: 0 0 transparent; --tw-ring-shadow: 0 0 transparent; --tw-shadow: 0 0 transparent; --tw-shadow-colored: 0 0 transparent; --tw-blur: ; --tw-brightness: ; --tw-contrast: ; --tw-grayscale: ; --tw-hue-rotate: ; --tw-invert: ; --tw-saturate: ; --tw-sepia: ; --tw-drop-shadow: ; --tw-backdrop-blur: ; --tw-backdrop-brightness: ; --tw-backdrop-contrast: ; --tw-backdrop-grayscale: ; --tw-backdrop-hue-rotate: ; --tw-backdrop-invert: ; --tw-backdrop-opacity: ; --tw-backdrop-saturate: ; --tw-backdrop-sepia: ; font-size: 1.25em; margin: 1rem 0px 0.5rem; line-height: 1.6; color: rgb(13, 13, 13); text-align: start;&quot;&gt;&lt;font&gt;Waste data&lt;/font&gt;&lt;/p&gt;" style="text;html=1;align=center;verticalAlign=middle;resizable=0;points=[];autosize=1;strokeColor=none;fillColor=none;fontFamily=Comic Sans MS;fontStyle=0;labelBackgroundColor=none;labelBorderColor=none;" parent="oWpsuCF8S4G1BgzhmDhQ-41" vertex="1">
          <mxGeometry x="15" y="-10" width="110" height="60" as="geometry" />
        </mxCell>
        <mxCell id="oWpsuCF8S4G1BgzhmDhQ-43" value="" style="swimlane;startSize=0;strokeWidth=3;sketch=1;curveFitting=1;jiggle=2;rounded=1;" parent="1" vertex="1">
          <mxGeometry x="280" y="920" width="480" height="280" as="geometry" />
        </mxCell>
        <mxCell id="oWpsuCF8S4G1BgzhmDhQ-44" value="&lt;p style=&quot;border: 0px solid rgb(227, 227, 227); box-sizing: border-box; --tw-border-spacing-x: 0; --tw-border-spacing-y: 0; --tw-translate-x: 0; --tw-translate-y: 0; --tw-rotate: 0; --tw-skew-x: 0; --tw-skew-y: 0; --tw-scale-x: 1; --tw-scale-y: 1; --tw-pan-x: ; --tw-pan-y: ; --tw-pinch-zoom: ; --tw-scroll-snap-strictness: proximity; --tw-gradient-from-position: ; --tw-gradient-via-position: ; --tw-gradient-to-position: ; --tw-ordinal: ; --tw-slashed-zero: ; --tw-numeric-figure: ; --tw-numeric-spacing: ; --tw-numeric-fraction: ; --tw-ring-inset: ; --tw-ring-offset-width: 0px; --tw-ring-offset-color: #fff; --tw-ring-color: rgba(69,89,164,.5); --tw-ring-offset-shadow: 0 0 transparent; --tw-ring-shadow: 0 0 transparent; --tw-shadow: 0 0 transparent; --tw-shadow-colored: 0 0 transparent; --tw-blur: ; --tw-brightness: ; --tw-contrast: ; --tw-grayscale: ; --tw-hue-rotate: ; --tw-invert: ; --tw-saturate: ; --tw-sepia: ; --tw-drop-shadow: ; --tw-backdrop-blur: ; --tw-backdrop-brightness: ; --tw-backdrop-contrast: ; --tw-backdrop-grayscale: ; --tw-backdrop-hue-rotate: ; --tw-backdrop-invert: ; --tw-backdrop-opacity: ; --tw-backdrop-saturate: ; --tw-backdrop-sepia: ; font-size: 1.25em; margin: 1rem 0px 0.5rem; line-height: 1.6; color: rgb(13, 13, 13); text-align: start;&quot;&gt;&lt;font&gt;MAIN PROCESSOR&lt;/font&gt;&lt;/p&gt;" style="text;html=1;align=center;verticalAlign=middle;resizable=0;points=[];autosize=1;strokeColor=none;fillColor=none;fontFamily=Comic Sans MS;fontStyle=0;labelBackgroundColor=none;labelBorderColor=none;" parent="oWpsuCF8S4G1BgzhmDhQ-43" vertex="1">
          <mxGeometry y="-10" width="160" height="60" as="geometry" />
        </mxCell>
        <mxCell id="oWpsuCF8S4G1BgzhmDhQ-45" value="&lt;font face=&quot;Comic Sans MS&quot;&gt;SPI&lt;/font&gt;" style="rounded=0;whiteSpace=wrap;html=1;sketch=1;curveFitting=1;jiggle=2;strokeWidth=3;" parent="oWpsuCF8S4G1BgzhmDhQ-43" vertex="1">
          <mxGeometry x="20" y="60" width="60" height="20" as="geometry" />
        </mxCell>
        <mxCell id="oWpsuCF8S4G1BgzhmDhQ-46" value="&lt;font face=&quot;Comic Sans MS&quot;&gt;Flash Driver&lt;/font&gt;" style="rounded=0;whiteSpace=wrap;html=1;sketch=1;curveFitting=1;jiggle=2;strokeWidth=3;" parent="oWpsuCF8S4G1BgzhmDhQ-43" vertex="1">
          <mxGeometry x="110" y="60" width="60" height="30" as="geometry" />
        </mxCell>
        <mxCell id="oWpsuCF8S4G1BgzhmDhQ-47" value="&lt;font face=&quot;Comic Sans MS&quot;&gt;Binary&lt;/font&gt;" style="rounded=0;whiteSpace=wrap;html=1;sketch=1;curveFitting=1;jiggle=2;strokeWidth=3;" parent="oWpsuCF8S4G1BgzhmDhQ-43" vertex="1">
          <mxGeometry x="190" y="60" width="60" height="20" as="geometry" />
        </mxCell>
        <mxCell id="oWpsuCF8S4G1BgzhmDhQ-48" value="Organizational diagram of software diagram with a shared resource" style="text;html=1;align=left;verticalAlign=middle;whiteSpace=wrap;rounded=0;fontStyle=1" parent="1" vertex="1">
          <mxGeometry x="50" y="1960" width="430" height="30" as="geometry" />
        </mxCell>
        <mxCell id="oWpsuCF8S4G1BgzhmDhQ-51" value="&lt;font face=&quot;Comic Sans MS&quot;&gt;MAIN&lt;/font&gt;" style="rounded=0;whiteSpace=wrap;html=1;sketch=1;curveFitting=1;jiggle=2;strokeWidth=3;" parent="1" vertex="1">
          <mxGeometry x="390" y="1310" width="60" height="20" as="geometry" />
        </mxCell>
        <mxCell id="oWpsuCF8S4G1BgzhmDhQ-52" value="&lt;font face=&quot;Comic Sans MS&quot;&gt;Logging&lt;/font&gt;" style="rounded=0;whiteSpace=wrap;html=1;sketch=1;curveFitting=1;jiggle=2;strokeWidth=3;" parent="1" vertex="1">
          <mxGeometry x="1095" y="1360" width="60" height="20" as="geometry" />
        </mxCell>
        <mxCell id="oWpsuCF8S4G1BgzhmDhQ-53" value="&lt;font face=&quot;Comic Sans MS&quot;&gt;Object&lt;/font&gt;" style="rounded=0;whiteSpace=wrap;html=1;sketch=1;curveFitting=1;jiggle=2;strokeWidth=3;" parent="1" vertex="1">
          <mxGeometry x="1220" y="1440" width="65" height="20" as="geometry" />
        </mxCell>
        <mxCell id="oWpsuCF8S4G1BgzhmDhQ-54" value="&lt;font face=&quot;Comic Sans MS&quot;&gt;Pump&lt;/font&gt;" style="rounded=0;whiteSpace=wrap;html=1;sketch=1;curveFitting=1;jiggle=2;strokeWidth=3;" parent="1" vertex="1">
          <mxGeometry x="1222.5" y="1480" width="60" height="20" as="geometry" />
        </mxCell>
        <mxCell id="oWpsuCF8S4G1BgzhmDhQ-55" value="&lt;font face=&quot;Comic Sans MS&quot;&gt;Display&lt;/font&gt;" style="rounded=0;whiteSpace=wrap;html=1;sketch=1;curveFitting=1;jiggle=2;strokeWidth=3;" parent="1" vertex="1">
          <mxGeometry x="-50" y="1360" width="60" height="20" as="geometry" />
        </mxCell>
        <mxCell id="oWpsuCF8S4G1BgzhmDhQ-57" value="" style="endArrow=none;html=1;rounded=0;strokeWidth=3;exitX=0.5;exitY=1;exitDx=0;exitDy=0;" parent="1" source="oWpsuCF8S4G1BgzhmDhQ-51" edge="1">
          <mxGeometry width="50" height="50" relative="1" as="geometry">
            <mxPoint x="150" y="1350" as="sourcePoint" />
            <mxPoint x="420" y="1340" as="targetPoint" />
          </mxGeometry>
        </mxCell>
        <mxCell id="oWpsuCF8S4G1BgzhmDhQ-58" value="" style="endArrow=none;html=1;rounded=0;strokeWidth=3;exitX=0.5;exitY=0;exitDx=0;exitDy=0;entryX=0.5;entryY=1;entryDx=0;entryDy=0;" parent="1" source="oWpsuCF8S4G1BgzhmDhQ-54" target="oWpsuCF8S4G1BgzhmDhQ-53" edge="1">
          <mxGeometry width="50" height="50" relative="1" as="geometry">
            <mxPoint x="1417.5" y="1340" as="sourcePoint" />
            <mxPoint x="1308.5" y="1542" as="targetPoint" />
          </mxGeometry>
        </mxCell>
        <mxCell id="oWpsuCF8S4G1BgzhmDhQ-59" value="" style="endArrow=none;html=1;rounded=0;strokeWidth=3;exitX=0.5;exitY=0;exitDx=0;exitDy=0;entryX=0.5;entryY=1;entryDx=0;entryDy=0;edgeStyle=elbowEdgeStyle;elbow=vertical;" parent="1" source="oWpsuCF8S4G1BgzhmDhQ-55" target="oWpsuCF8S4G1BgzhmDhQ-51" edge="1">
          <mxGeometry width="50" height="50" relative="1" as="geometry">
            <mxPoint x="320" y="1370" as="sourcePoint" />
            <mxPoint x="130" y="1340" as="targetPoint" />
          </mxGeometry>
        </mxCell>
        <mxCell id="oWpsuCF8S4G1BgzhmDhQ-60" value="" style="endArrow=none;html=1;rounded=0;strokeWidth=3;entryX=0.5;entryY=0;entryDx=0;entryDy=0;exitX=0.5;exitY=1;exitDx=0;exitDy=0;edgeStyle=elbowEdgeStyle;elbow=vertical;" parent="1" source="oWpsuCF8S4G1BgzhmDhQ-87" target="oWpsuCF8S4G1BgzhmDhQ-53" edge="1">
          <mxGeometry width="50" height="50" relative="1" as="geometry">
            <mxPoint x="1322.5" y="1340" as="sourcePoint" />
            <mxPoint x="1317.5" y="1360" as="targetPoint" />
          </mxGeometry>
        </mxCell>
        <mxCell id="oWpsuCF8S4G1BgzhmDhQ-61" value="" style="endArrow=none;html=1;rounded=0;strokeWidth=3;exitX=0.5;exitY=0;exitDx=0;exitDy=0;entryX=0.5;entryY=1;entryDx=0;entryDy=0;edgeStyle=elbowEdgeStyle;elbow=vertical;" parent="1" source="oWpsuCF8S4G1BgzhmDhQ-52" target="oWpsuCF8S4G1BgzhmDhQ-51" edge="1">
          <mxGeometry width="50" height="50" relative="1" as="geometry">
            <mxPoint x="340" y="1390" as="sourcePoint" />
            <mxPoint x="670" y="1340" as="targetPoint" />
          </mxGeometry>
        </mxCell>
        <mxCell id="oWpsuCF8S4G1BgzhmDhQ-62" value="&lt;font face=&quot;Comic Sans MS&quot;&gt;Print serial number&lt;/font&gt;" style="rounded=0;whiteSpace=wrap;html=1;sketch=1;curveFitting=1;jiggle=2;strokeWidth=3;" parent="1" vertex="1">
          <mxGeometry x="1105" y="1420" width="80" height="40" as="geometry" />
        </mxCell>
        <mxCell id="oWpsuCF8S4G1BgzhmDhQ-63" value="&lt;font face=&quot;Comic Sans MS&quot;&gt;Flash&lt;/font&gt;" style="rounded=0;whiteSpace=wrap;html=1;sketch=1;curveFitting=1;jiggle=2;strokeWidth=3;" parent="1" vertex="1">
          <mxGeometry x="365" y="1850" width="115" height="20" as="geometry" />
        </mxCell>
        <mxCell id="oWpsuCF8S4G1BgzhmDhQ-64" value="&lt;font face=&quot;Comic Sans MS&quot;&gt;SPI&lt;/font&gt;" style="rounded=0;whiteSpace=wrap;html=1;sketch=1;curveFitting=1;jiggle=2;strokeWidth=3;" parent="1" vertex="1">
          <mxGeometry x="369" y="1900" width="100" height="20" as="geometry" />
        </mxCell>
        <mxCell id="oWpsuCF8S4G1BgzhmDhQ-65" value="" style="endArrow=none;html=1;rounded=0;strokeWidth=3;entryX=0.5;entryY=1;entryDx=0;entryDy=0;exitX=0.75;exitY=0;exitDx=0;exitDy=0;edgeStyle=elbowEdgeStyle;elbow=vertical;" parent="1" source="oWpsuCF8S4G1BgzhmDhQ-63" target="oWpsuCF8S4G1BgzhmDhQ-62" edge="1">
          <mxGeometry width="50" height="50" relative="1" as="geometry">
            <mxPoint x="140" y="1350" as="sourcePoint" />
            <mxPoint x="680" y="1350" as="targetPoint" />
          </mxGeometry>
        </mxCell>
        <mxCell id="oWpsuCF8S4G1BgzhmDhQ-66" value="&lt;font face=&quot;Comic Sans MS&quot;&gt;Status&lt;/font&gt;" style="rounded=0;whiteSpace=wrap;html=1;sketch=1;curveFitting=1;jiggle=2;strokeWidth=3;" parent="1" vertex="1">
          <mxGeometry x="-310" y="1425" width="60" height="20" as="geometry" />
        </mxCell>
        <mxCell id="oWpsuCF8S4G1BgzhmDhQ-67" value="" style="endArrow=none;html=1;rounded=0;strokeWidth=3;entryX=0.5;entryY=1;entryDx=0;entryDy=0;exitX=0.5;exitY=0;exitDx=0;exitDy=0;edgeStyle=elbowEdgeStyle;elbow=vertical;" parent="1" source="oWpsuCF8S4G1BgzhmDhQ-66" target="oWpsuCF8S4G1BgzhmDhQ-55" edge="1">
          <mxGeometry width="50" height="50" relative="1" as="geometry">
            <mxPoint x="285" y="1560" as="sourcePoint" />
            <mxPoint x="590" y="1470" as="targetPoint" />
          </mxGeometry>
        </mxCell>
        <mxCell id="oWpsuCF8S4G1BgzhmDhQ-68" value="" style="endArrow=none;html=1;rounded=0;strokeWidth=3;entryX=0.177;entryY=-0.168;entryDx=0;entryDy=0;exitX=0.5;exitY=1;exitDx=0;exitDy=0;edgeStyle=elbowEdgeStyle;elbow=vertical;entryPerimeter=0;" parent="1" source="oWpsuCF8S4G1BgzhmDhQ-66" target="oWpsuCF8S4G1BgzhmDhQ-63" edge="1">
          <mxGeometry width="50" height="50" relative="1" as="geometry">
            <mxPoint x="140" y="1490" as="sourcePoint" />
            <mxPoint x="140" y="1390" as="targetPoint" />
          </mxGeometry>
        </mxCell>
        <mxCell id="oWpsuCF8S4G1BgzhmDhQ-69" value="" style="endArrow=none;html=1;rounded=0;strokeWidth=3;entryX=0.25;entryY=1;entryDx=0;entryDy=0;exitX=0.25;exitY=0;exitDx=0;exitDy=0;edgeStyle=elbowEdgeStyle;elbow=vertical;" parent="1" source="oWpsuCF8S4G1BgzhmDhQ-64" target="oWpsuCF8S4G1BgzhmDhQ-63" edge="1">
          <mxGeometry width="50" height="50" relative="1" as="geometry">
            <mxPoint x="150" y="1500" as="sourcePoint" />
            <mxPoint x="150" y="1400" as="targetPoint" />
          </mxGeometry>
        </mxCell>
        <mxCell id="oWpsuCF8S4G1BgzhmDhQ-70" value="" style="endArrow=none;html=1;rounded=0;strokeWidth=3;entryX=0.75;entryY=1;entryDx=0;entryDy=0;exitX=0.75;exitY=0;exitDx=0;exitDy=0;edgeStyle=elbowEdgeStyle;elbow=vertical;" parent="1" source="oWpsuCF8S4G1BgzhmDhQ-64" target="oWpsuCF8S4G1BgzhmDhQ-63" edge="1">
          <mxGeometry width="50" height="50" relative="1" as="geometry">
            <mxPoint x="390" y="1600" as="sourcePoint" />
            <mxPoint x="390" y="1570" as="targetPoint" />
          </mxGeometry>
        </mxCell>
        <mxCell id="oWpsuCF8S4G1BgzhmDhQ-71" value="" style="endArrow=none;html=1;rounded=0;strokeWidth=3;entryX=0.5;entryY=0;entryDx=0;entryDy=0;edgeStyle=elbowEdgeStyle;elbow=vertical;exitX=0.5;exitY=1;exitDx=0;exitDy=0;" parent="1" source="oWpsuCF8S4G1BgzhmDhQ-52" target="oWpsuCF8S4G1BgzhmDhQ-62" edge="1">
          <mxGeometry width="50" height="50" relative="1" as="geometry">
            <mxPoint x="1145" y="1400" as="sourcePoint" />
            <mxPoint x="815" y="1580" as="targetPoint" />
          </mxGeometry>
        </mxCell>
        <mxCell id="oWpsuCF8S4G1BgzhmDhQ-74" value="&lt;font face=&quot;Comic Sans MS&quot;&gt;Login&lt;/font&gt;" style="rounded=0;whiteSpace=wrap;html=1;sketch=1;curveFitting=1;jiggle=2;strokeWidth=3;" parent="1" vertex="1">
          <mxGeometry x="1015" y="1420" width="70" height="30" as="geometry" />
        </mxCell>
        <mxCell id="oWpsuCF8S4G1BgzhmDhQ-75" value="&lt;font face=&quot;Comic Sans MS&quot;&gt;Wash&lt;/font&gt;" style="rounded=0;whiteSpace=wrap;html=1;sketch=1;curveFitting=1;jiggle=2;strokeWidth=3;" parent="1" vertex="1">
          <mxGeometry x="900" y="1420" width="70" height="30" as="geometry" />
        </mxCell>
        <mxCell id="oWpsuCF8S4G1BgzhmDhQ-76" value="" style="endArrow=none;html=1;rounded=0;strokeWidth=3;entryX=0.5;entryY=0;entryDx=0;entryDy=0;edgeStyle=elbowEdgeStyle;elbow=vertical;exitX=0.5;exitY=1;exitDx=0;exitDy=0;" parent="1" source="oWpsuCF8S4G1BgzhmDhQ-52" target="oWpsuCF8S4G1BgzhmDhQ-74" edge="1">
          <mxGeometry width="50" height="50" relative="1" as="geometry">
            <mxPoint x="1050" y="1400" as="sourcePoint" />
            <mxPoint x="1136" y="1430" as="targetPoint" />
          </mxGeometry>
        </mxCell>
        <mxCell id="oWpsuCF8S4G1BgzhmDhQ-78" value="" style="endArrow=none;html=1;rounded=0;strokeWidth=3;entryX=0.5;entryY=0;entryDx=0;entryDy=0;edgeStyle=elbowEdgeStyle;elbow=vertical;exitX=0.5;exitY=1;exitDx=0;exitDy=0;" parent="1" source="oWpsuCF8S4G1BgzhmDhQ-52" target="oWpsuCF8S4G1BgzhmDhQ-75" edge="1">
          <mxGeometry width="50" height="50" relative="1" as="geometry">
            <mxPoint x="935" y="1400" as="sourcePoint" />
            <mxPoint x="966" y="1420" as="targetPoint" />
          </mxGeometry>
        </mxCell>
        <mxCell id="oWpsuCF8S4G1BgzhmDhQ-85" value="&lt;font face=&quot;Comic Sans MS&quot;&gt;LED&lt;/font&gt;" style="rounded=0;whiteSpace=wrap;html=1;sketch=1;curveFitting=1;jiggle=2;strokeWidth=3;" parent="1" vertex="1">
          <mxGeometry x="-190" y="1425" width="60" height="20" as="geometry" />
        </mxCell>
        <mxCell id="oWpsuCF8S4G1BgzhmDhQ-86" value="" style="endArrow=none;html=1;rounded=0;strokeWidth=3;entryX=0.5;entryY=1;entryDx=0;entryDy=0;exitX=0.5;exitY=0;exitDx=0;exitDy=0;edgeStyle=elbowEdgeStyle;elbow=vertical;" parent="1" source="oWpsuCF8S4G1BgzhmDhQ-85" target="oWpsuCF8S4G1BgzhmDhQ-55" edge="1">
          <mxGeometry width="50" height="50" relative="1" as="geometry">
            <mxPoint x="-90" y="1435" as="sourcePoint" />
            <mxPoint x="-10" y="1390" as="targetPoint" />
          </mxGeometry>
        </mxCell>
        <mxCell id="oWpsuCF8S4G1BgzhmDhQ-87" value="&lt;font face=&quot;Comic Sans MS&quot;&gt;IR Sensor&lt;/font&gt;" style="rounded=0;whiteSpace=wrap;html=1;sketch=1;curveFitting=1;jiggle=2;strokeWidth=3;" parent="1" vertex="1">
          <mxGeometry x="1292.5" y="1360" width="60" height="20" as="geometry" />
        </mxCell>
        <mxCell id="oWpsuCF8S4G1BgzhmDhQ-88" value="" style="endArrow=none;html=1;rounded=0;strokeWidth=3;entryX=0.5;entryY=0;entryDx=0;entryDy=0;exitX=0.5;exitY=1;exitDx=0;exitDy=0;edgeStyle=elbowEdgeStyle;elbow=vertical;" parent="1" source="oWpsuCF8S4G1BgzhmDhQ-51" target="oWpsuCF8S4G1BgzhmDhQ-87" edge="1">
          <mxGeometry width="50" height="50" relative="1" as="geometry">
            <mxPoint x="345" y="1390" as="sourcePoint" />
            <mxPoint x="343" y="1455" as="targetPoint" />
          </mxGeometry>
        </mxCell>
        <mxCell id="oWpsuCF8S4G1BgzhmDhQ-89" value="&lt;font face=&quot;Comic Sans MS&quot;&gt;Water level&lt;/font&gt;" style="rounded=0;whiteSpace=wrap;html=1;sketch=1;curveFitting=1;jiggle=2;strokeWidth=3;" parent="1" vertex="1">
          <mxGeometry x="1327.5" y="1440" width="65" height="40" as="geometry" />
        </mxCell>
        <mxCell id="oWpsuCF8S4G1BgzhmDhQ-91" value="" style="endArrow=none;html=1;rounded=0;strokeWidth=3;entryX=0.5;entryY=0;entryDx=0;entryDy=0;exitX=0.5;exitY=1;exitDx=0;exitDy=0;edgeStyle=elbowEdgeStyle;elbow=vertical;" parent="1" source="oWpsuCF8S4G1BgzhmDhQ-87" target="oWpsuCF8S4G1BgzhmDhQ-89" edge="1">
          <mxGeometry width="50" height="50" relative="1" as="geometry">
            <mxPoint x="1332.5" y="1390" as="sourcePoint" />
            <mxPoint x="1262.5" y="1450" as="targetPoint" />
          </mxGeometry>
        </mxCell>
        <mxCell id="oWpsuCF8S4G1BgzhmDhQ-92" value="&lt;font face=&quot;Comic Sans MS&quot;&gt;Communication&lt;/font&gt;" style="rounded=0;whiteSpace=wrap;html=1;sketch=1;curveFitting=1;jiggle=2;strokeWidth=3;" parent="1" vertex="1">
          <mxGeometry x="500" y="1360" width="115" height="20" as="geometry" />
        </mxCell>
        <mxCell id="oWpsuCF8S4G1BgzhmDhQ-93" value="&lt;font face=&quot;Comic Sans MS&quot;&gt;BLE&lt;/font&gt;" style="rounded=0;whiteSpace=wrap;html=1;sketch=1;curveFitting=1;jiggle=2;strokeWidth=3;" parent="1" vertex="1">
          <mxGeometry x="500" y="1410" width="115" height="20" as="geometry" />
        </mxCell>
        <mxCell id="oWpsuCF8S4G1BgzhmDhQ-94" value="" style="endArrow=none;html=1;rounded=0;strokeWidth=3;entryX=0.5;entryY=0;entryDx=0;entryDy=0;edgeStyle=elbowEdgeStyle;elbow=vertical;exitX=0.5;exitY=1;exitDx=0;exitDy=0;" parent="1" source="oWpsuCF8S4G1BgzhmDhQ-92" target="oWpsuCF8S4G1BgzhmDhQ-93" edge="1">
          <mxGeometry width="50" height="50" relative="1" as="geometry">
            <mxPoint x="578" y="1720" as="sourcePoint" />
            <mxPoint x="610" y="1430" as="targetPoint" />
          </mxGeometry>
        </mxCell>
        <mxCell id="oWpsuCF8S4G1BgzhmDhQ-95" value="" style="endArrow=none;html=1;rounded=0;strokeWidth=3;entryX=0.5;entryY=0;entryDx=0;entryDy=0;edgeStyle=elbowEdgeStyle;elbow=vertical;exitX=0.5;exitY=1;exitDx=0;exitDy=0;" parent="1" source="oWpsuCF8S4G1BgzhmDhQ-51" target="oWpsuCF8S4G1BgzhmDhQ-92" edge="1">
          <mxGeometry width="50" height="50" relative="1" as="geometry">
            <mxPoint x="518" y="1530" as="sourcePoint" />
            <mxPoint x="518" y="1560" as="targetPoint" />
          </mxGeometry>
        </mxCell>
        <mxCell id="oWpsuCF8S4G1BgzhmDhQ-96" value="&lt;font face=&quot;Comic Sans MS&quot;&gt;APP&lt;/font&gt;" style="rounded=0;whiteSpace=wrap;html=1;sketch=1;curveFitting=1;jiggle=2;strokeWidth=3;" parent="1" vertex="1">
          <mxGeometry x="-70" y="1425" width="60" height="20" as="geometry" />
        </mxCell>
        <mxCell id="oWpsuCF8S4G1BgzhmDhQ-97" value="" style="endArrow=none;html=1;rounded=0;strokeWidth=3;entryX=0.5;entryY=1;entryDx=0;entryDy=0;exitX=0.5;exitY=0;exitDx=0;exitDy=0;edgeStyle=elbowEdgeStyle;elbow=vertical;" parent="1" source="oWpsuCF8S4G1BgzhmDhQ-96" target="oWpsuCF8S4G1BgzhmDhQ-55" edge="1">
          <mxGeometry width="50" height="50" relative="1" as="geometry">
            <mxPoint x="-150" y="1435" as="sourcePoint" />
            <mxPoint x="-10" y="1390" as="targetPoint" />
          </mxGeometry>
        </mxCell>
        <mxCell id="oWpsuCF8S4G1BgzhmDhQ-98" value="" style="endArrow=none;html=1;rounded=0;strokeWidth=3;entryX=1;entryY=0.25;entryDx=0;entryDy=0;exitX=0;exitY=0.75;exitDx=0;exitDy=0;edgeStyle=elbowEdgeStyle;elbow=vertical;" parent="1" source="oWpsuCF8S4G1BgzhmDhQ-93" target="oWpsuCF8S4G1BgzhmDhQ-96" edge="1">
          <mxGeometry width="50" height="50" relative="1" as="geometry">
            <mxPoint x="429" y="1910" as="sourcePoint" />
            <mxPoint x="422" y="1880" as="targetPoint" />
          </mxGeometry>
        </mxCell>
        <mxCell id="oWpsuCF8S4G1BgzhmDhQ-99" value="" style="endArrow=none;html=1;rounded=0;strokeWidth=3;exitX=0.5;exitY=1;exitDx=0;exitDy=0;edgeStyle=elbowEdgeStyle;elbow=vertical;entryX=0.5;entryY=1;entryDx=0;entryDy=0;" parent="1" source="oWpsuCF8S4G1BgzhmDhQ-75" target="oWpsuCF8S4G1BgzhmDhQ-54" edge="1">
          <mxGeometry width="50" height="50" relative="1" as="geometry">
            <mxPoint x="510" y="1435" as="sourcePoint" />
            <mxPoint x="1200" y="1580" as="targetPoint" />
            <Array as="points">
              <mxPoint x="1090" y="1570" />
            </Array>
          </mxGeometry>
        </mxCell>
        <mxCell id="oWpsuCF8S4G1BgzhmDhQ-102" value="&lt;font face=&quot;Comic Sans MS&quot;&gt;Energy Management&lt;/font&gt;" style="rounded=0;whiteSpace=wrap;html=1;sketch=1;curveFitting=1;jiggle=2;strokeWidth=3;" parent="1" vertex="1">
          <mxGeometry x="710" y="1360" width="115" height="20" as="geometry" />
        </mxCell>
        <mxCell id="oWpsuCF8S4G1BgzhmDhQ-103" value="&lt;font face=&quot;Comic Sans MS&quot;&gt;Sleep&lt;/font&gt;" style="rounded=0;whiteSpace=wrap;html=1;sketch=1;curveFitting=1;jiggle=2;strokeWidth=3;" parent="1" vertex="1">
          <mxGeometry x="660" y="1410" width="80" height="20" as="geometry" />
        </mxCell>
        <mxCell id="oWpsuCF8S4G1BgzhmDhQ-104" value="&lt;font face=&quot;Comic Sans MS&quot;&gt;Cleansing&lt;/font&gt;" style="rounded=0;whiteSpace=wrap;html=1;sketch=1;curveFitting=1;jiggle=2;strokeWidth=3;" parent="1" vertex="1">
          <mxGeometry x="770" y="1410" width="70" height="20" as="geometry" />
        </mxCell>
        <mxCell id="oWpsuCF8S4G1BgzhmDhQ-106" value="" style="endArrow=none;html=1;rounded=0;strokeWidth=3;entryX=0.5;entryY=0;entryDx=0;entryDy=0;edgeStyle=elbowEdgeStyle;elbow=vertical;exitX=0.5;exitY=1;exitDx=0;exitDy=0;" parent="1" source="oWpsuCF8S4G1BgzhmDhQ-102" target="oWpsuCF8S4G1BgzhmDhQ-103" edge="1">
          <mxGeometry width="50" height="50" relative="1" as="geometry">
            <mxPoint x="568" y="1390" as="sourcePoint" />
            <mxPoint x="568" y="1420" as="targetPoint" />
          </mxGeometry>
        </mxCell>
        <mxCell id="oWpsuCF8S4G1BgzhmDhQ-107" value="" style="endArrow=none;html=1;rounded=0;strokeWidth=3;entryX=0.5;entryY=0;entryDx=0;entryDy=0;edgeStyle=elbowEdgeStyle;elbow=vertical;exitX=0.5;exitY=1;exitDx=0;exitDy=0;" parent="1" source="oWpsuCF8S4G1BgzhmDhQ-102" target="oWpsuCF8S4G1BgzhmDhQ-104" edge="1">
          <mxGeometry width="50" height="50" relative="1" as="geometry">
            <mxPoint x="778" y="1390" as="sourcePoint" />
            <mxPoint x="710" y="1420" as="targetPoint" />
          </mxGeometry>
        </mxCell>
      </root>
    </mxGraphModel>
  </diagram>
</mxfile>
